<?xml version="1.0" standalone="no"?>
<!DOCTYPE svg PUBLIC "-//W3C//DTD SVG 20010904//EN"
 "http://www.w3.org/TR/2001/REC-SVG-20010904/DTD/svg10.dtd">
<svg version="1.0" xmlns="http://www.w3.org/2000/svg"
 width="512.000000pt" height="512.000000pt" viewBox="0 0 512.000000 512.000000"
 preserveAspectRatio="xMidYMid meet">
<metadata>
Created by potrace 1.14, written by Peter Selinger 2001-2017
</metadata>
<g transform="translate(0.000000,512.000000) scale(0.100000,-0.100000)"
fill="#000000" stroke="none">
<path d="M2990 5011 c112 -33 175 -59 145 -60 -11 -1 -81 8 -155 19 -802 122
-1603 -139 -2161 -702 -190 -193 -336 -401 -471 -675 -50 -101 -92 -183 -94
-183 -6 0 5 44 38 148 16 52 27 96 25 98 -8 8 -93 -205 -136 -339 -76 -239
-113 -485 -113 -747 0 -356 73 -698 219 -1028 344 -779 1074 -1325 1938 -1448
165 -24 505 -24 673 -1 148 21 392 82 528 132 124 46 332 147 444 215 216 132
487 371 640 565 438 553 626 1283 509 1975 -87 517 -329 989 -695 1354 -341
342 -804 589 -1272 680 -166 33 -182 32 -62 -3z m114 -837 c14 -5 16 -62 16
-535 l0 -529 535 0 535 0 0 -540 c0 -508 -1 -540 -17 -538 -10 1 -251 0 -535
0 l-518 -2 0 -535 0 -535 -545 0 -545 0 0 535 0 535 -525 0 -525 0 0 540 0
540 525 0 525 0 0 528 c0 291 3 532 7 535 8 9 1046 9 1067 1z m1625 -2475
c-279 -760 -946 -1304 -1784 -1455 -138 -25 -480 -30 -633 -10 -128 17 -283
50 -311 66 -24 14 48 12 154 -5 131 -21 447 -30 586 -16 323 31 538 92 825
231 374 181 716 485 939 835 48 75 179 316 225 413 19 40 36 69 38 64 1 -5
-16 -61 -39 -123z"/>
</g>
</svg>
